<svg height='100px' width='100px'  fill="#FFFFFF" xmlns="http://www.w3.org/2000/svg" xmlns:xlink="http://www.w3.org/1999/xlink" version="1.1" x="0px" y="0px" viewBox="0 0 60 60" style="enable-background:new 0 0 60 60;" xml:space="preserve"><path d="M52.56,21.82C49.33,12.93,40.98,6.48,31.1,6.03c0,0,0,0-0.01,0C30.73,6.01,30.37,6,30,6C16.77,6,6,16.77,6,30  s10.77,24,24,24c8.4,0,15.8-4.34,20.09-10.89c0.03-0.04,0.05-0.08,0.08-0.12C52.59,39.24,54,34.79,54,30c0-2.85-0.5-5.59-1.42-8.12  C52.58,21.86,52.57,21.84,52.56,21.82z M50.59,22.27c-0.27,2-1.56,3.4-2.61,4.22c-0.88,0.68-2.02,0.84-3,0.4  c-1.12-0.52-1.77-1.71-1.63-2.96c0.08-0.66,0.12-1.4,0.14-2.2c0.03-1.49-0.99-2.76-2.43-3.03c-1.25-0.24-2.46-0.06-3.61,0.54  c-1,0.52-1.86,1.4-2.48,2.57c-0.09,0.17-0.18,0.31-0.27,0.44c-0.35,0.51-0.92,0.84-1.56,0.9c-0.85,0.08-1.73,0-1.97-0.03  c-1.96-0.52-1.92-2.17-1.89-2.49c0.1-0.96,1.77-1.87,4.34-2.37c1.09-0.21,1.94-1.09,2.13-2.19c0.21-1.28-0.51-2.52-1.73-2.96  l-1.85-0.67c-0.33-0.12-0.61-0.32-0.76-0.55c-0.71-1.03-0.22-2.77,0.21-3.8C40.33,8.7,47.64,14.42,50.59,22.27z M30,52  C17.87,52,8,42.13,8,30c0-9.73,6.36-18.01,15.14-20.9c0.2,0.65,0.36,1.5,0.14,2.13c-0.12,0.34-0.34,0.57-0.7,0.74  c-0.04,0.02-0.08,0.04-0.12,0.07c-0.86,0.56-8.33,5.51-8.7,9.32c-0.13,0.68-0.41,2.63,0.66,3.57c0.39,0.34,1.08,0.67,2.17,0.28  c0.5-0.17,1.01-0.04,1.28,0.34c0.23,0.32,0.27,0.73,0.1,1.07c-1.15,2.33-2.29,5.58-1.17,7.81c0.38,0.76,1.22,1.74,3.02,2.06  c0.52,0.1,2.75,0.27,4.3-3.59c0.36-0.91,1.01-1.6,1.78-1.9c0.7-0.28,1.64-0.38,2.67,1.34c0.02,0.04,0.05,0.08,0.08,0.11  c0.26,0.33,0.92,1.38,0.78,2.31c-0.08,0.5-0.38,0.94-0.94,1.32c-0.69,0.34-5.31,2.83-4.88,7.51c0.12,1.31,0.69,2.57,1.65,3.64  c0.62,0.69,1.29,1.22,2.01,1.59c0.68,0.35,1.43,0.53,2.17,0.53c0.56,0,1.13-0.1,1.68-0.3c1.32-0.48,2.38-1.5,2.91-2.79  c0.88-2.13,3.27-7.28,6.45-9.2c0.37-0.22,0.81-0.38,1.32-0.46c2.35-0.39,5.32,0.31,6.42,5.7C44.28,48.14,37.58,52,30,52z   M49.65,39.88c-2.06-5.76-6.66-5.52-8.16-5.27c-0.76,0.13-1.44,0.37-2.03,0.73c-3.54,2.15-6.07,7.28-7.26,10.15  c-0.32,0.78-0.96,1.39-1.75,1.68c-0.76,0.28-1.56,0.23-2.25-0.13c-0.5-0.26-0.98-0.64-1.43-1.15c-0.66-0.74-1.07-1.62-1.15-2.49  c-0.33-3.54,3.77-5.53,3.81-5.55c0.04-0.02,0.09-0.05,0.13-0.07c1.33-0.89,1.75-1.98,1.86-2.73c0.27-1.83-0.87-3.43-1.16-3.8  c-1.77-2.88-3.94-2.56-5.09-2.11c-1.27,0.5-2.33,1.6-2.9,3.02c-1,2.48-2.03,2.38-1.99,2.39c-0.04-0.01-0.07-0.02-0.11-0.02  c-0.8-0.14-1.32-0.47-1.58-0.99c-0.57-1.13-0.13-3.38,1.18-6.02c0.5-1.01,0.4-2.21-0.27-3.13c-0.8-1.1-2.23-1.52-3.56-1.05  c-0.1,0.03-0.17,0.05-0.21,0.06c-0.12-0.27-0.12-1.05,0.01-1.68c0.01-0.04,0.02-0.09,0.02-0.13c0.16-2.13,4.81-5.91,7.75-7.82  c0.8-0.4,1.38-1.04,1.67-1.86c0.4-1.15,0.18-2.42-0.1-3.32c1.43-0.33,2.92-0.52,4.44-0.55c-0.45,1.36-0.82,3.41,0.26,4.98  c0.4,0.58,1,1.03,1.73,1.3l1.85,0.67c0.31,0.11,0.5,0.43,0.44,0.75c-0.05,0.28-0.26,0.5-0.53,0.55c-2.57,0.5-5.69,1.62-5.95,4.13  c-0.13,1.28,0.42,3.9,3.46,4.66c0.04,0.01,0.08,0.02,0.12,0.02c0.05,0.01,1.25,0.15,2.45,0.04c1.23-0.11,2.34-0.75,3.03-1.75  c0.13-0.19,0.26-0.39,0.38-0.63c0.3-0.56,0.83-1.32,1.64-1.74c0.74-0.38,1.52-0.5,2.32-0.35c0.47,0.09,0.82,0.53,0.8,1.02  c-0.02,0.74-0.06,1.42-0.13,2.02c-0.25,2.11,0.87,4.13,2.81,5.03c0.62,0.28,1.29,0.42,1.95,0.42c1.08,0,2.16-0.36,3.07-1.07  c0.66-0.51,1.6-1.39,2.33-2.6C51.84,26.93,52,28.45,52,30C52,33.55,51.15,36.91,49.65,39.88z"></path><path d="M40,18c1.65,0,3-1.35,3-3s-1.35-3-3-3s-3,1.35-3,3S38.35,18,40,18z M40,14c0.55,0,1,0.45,1,1s-0.45,1-1,1s-1-0.45-1-1  S39.45,14,40,14z"></path><path d="M23,19c-1.65,0-3,1.35-3,3s1.35,3,3,3s3-1.35,3-3S24.65,19,23,19z M23,23c-0.55,0-1-0.45-1-1s0.45-1,1-1s1,0.45,1,1  S23.55,23,23,23z"></path><path d="M12,27c-1.65,0-3,1.35-3,3s1.35,3,3,3s3-1.35,3-3S13.65,27,12,27z M12,31c-0.55,0-1-0.45-1-1s0.45-1,1-1s1,0.45,1,1  S12.55,31,12,31z"></path><path d="M19,39c-1.65,0-3,1.35-3,3s1.35,3,3,3s3-1.35,3-3S20.65,39,19,39z M19,43c-0.55,0-1-0.45-1-1s0.45-1,1-1s1,0.45,1,1  S19.55,43,19,43z"></path><path d="M38,28c-1.65,0-3,1.35-3,3s1.35,3,3,3s3-1.35,3-3S39.65,28,38,28z M38,32c-0.55,0-1-0.45-1-1s0.45-1,1-1s1,0.45,1,1  S38.55,32,38,32z"></path></svg>