<svg height='100px' width='100px'  fill="#FFFFFF" xmlns:dc="http://purl.org/dc/elements/1.1/" xmlns:cc="http://creativecommons.org/ns#" xmlns:rdf="http://www.w3.org/1999/02/22-rdf-syntax-ns#" xmlns:svg="http://www.w3.org/2000/svg" xmlns="http://www.w3.org/2000/svg" xmlns:sodipodi="http://sodipodi.sourceforge.net/DTD/sodipodi-0.dtd" xmlns:inkscape="http://www.inkscape.org/namespaces/inkscape" viewBox="0 0 100 100" version="1.1" x="0px" y="0px"><g transform="translate(0,-952.36216)"><path style="color:#000000;font-style:normal;font-variant:normal;font-weight:normal;font-stretch:normal;font-size:medium;line-height:normal;font-family:sans-serif;text-indent:0;text-align:start;text-decoration:none;text-decoration-line:none;text-decoration-style:solid;text-decoration-color:#000000;letter-spacing:normal;word-spacing:normal;text-transform:none;direction:ltr;block-progression:tb;writing-mode:lr-tb;baseline-shift:baseline;text-anchor:start;white-space:normal;clip-rule:nonzero;display:inline;overflow:visible;visibility:visible;opacity:1;isolation:auto;mix-blend-mode:normal;color-interpolation:sRGB;color-interpolation-filters:linearRGB;solid-color:#000000;solid-opacity:1;fill:#FFFFFF;fill-opacity:1;fill-rule:evenodd;stroke:none;stroke-width:3.5;stroke-linecap:butt;stroke-linejoin:round;stroke-miterlimit:4;stroke-dasharray:none;stroke-dashoffset:0;stroke-opacity:1;color-rendering:auto;image-rendering:auto;shape-rendering:auto;text-rendering:auto;enable-background:accumulate" d="m 50.476467,966.87659 a 2.1364363,2.1364363 0 0 0 -1.34228,0.54359 L 6.6576569,1005.5646 a 2.1364363,2.1364363 0 0 0 -0.884519,1.2589 l -0.01221,0.026 a 2.1364363,2.1364363 0 0 0 -0.01221,0.048 c -0.05249,0.1988 -0.748654,2.9279 -0.748654,6.5827 0,3.7932 0.765256,6.6543 0.765256,6.6543 a 2.1364363,2.1364363 0 0 0 1.301753,1.4448 l 42.2906181,16.129 a 2.1364363,2.1364363 0 0 0 2.18859,-0.4053 l 42.724457,-38.36384 a 2.1364363,2.1364363 0 0 0 -0.63659,-3.6001 l 0,-0.002 -0.0903,-0.0333 -1.37805,-0.5269 c -0.061,-0.67535 -0.10986,-1.39293 -0.10986,-2.21491 0,-1.67538 0.16174,-3.11179 0.32422,-4.13415 l 1.88829,-1.69516 a 2.1364363,2.1364363 0 0 0 -0.6676,-3.5858 L 51.312646,967.01493 a 2.1364363,2.1364363 0 0 0 -0.827268,-0.13828 l -0.01221,0 z m 3.249622,15.30403 c 0.560301,0.0303 1.100948,0.13855 1.6737,0.32902 1.944085,0.64647 3.254383,2.01231 4.155625,4.32728 l 0.371946,0.95129 0.796262,-0.11438 c 2.423697,-0.35063 6.007303,-0.38446 7.557834,-0.0691 0.387938,0.0791 1.096065,0.3151 1.573603,0.52213 0.736569,0.31931 0.930172,0.4534 1.275508,0.88453 0.483885,0.60392 0.578489,1.19603 0.312377,1.95026 -0.325561,0.92318 -0.685301,1.37559 -2.071892,2.61067 -1.135006,1.00768 -1.616938,1.37083 -3.378406,2.51292 -0.04517,0.0295 0.232909,0.32688 0.619871,0.6628 2.129753,1.84858 3.074818,3.68046 2.634512,5.10216 -0.199218,0.6438 -1.100094,1.5838 -1.921624,2.0051 l 0,0 c -2.010491,1.0313 -5.67039,1.3626 -9.815638,0.8893 -0.966916,-0.1105 -1.284664,-0.1131 -1.330318,-0.012 -0.03174,0.073 -0.333617,0.4823 -0.6676,0.9083 -0.84863,1.0833 -2.8131,2.8432 -3.771837,3.3856 -1.629266,0.9158 -3.218128,1.3508 -4.739729,1.297 -1.057613,-0.038 -2.380728,-0.4579 -3.209094,-1.0205 -1.15234,-0.7826 -2.516593,-2.7363 -2.90392,-4.1556 l -0.104981,-0.3862 -1.761956,0.1812 c -2.756216,0.2849 -5.005231,0.2646 -6.659033,-0.06 -0.378417,-0.074 -1.064816,-0.3006 -1.547236,-0.5102 -0.736203,-0.32 -0.93005,-0.4536 -1.27563,-0.8846 -0.22351,-0.2794 -0.426634,-0.7079 -0.45056,-0.9513 -0.05127,-0.5284 0.215331,-1.3805 0.631834,-2.0146 0.447508,-0.68137 2.511831,-2.49703 3.817002,-3.35691 0.581053,-0.38261 1.094601,-0.72114 1.139645,-0.75101 0.04516,-0.0295 -0.238159,-0.32969 -0.629393,-0.66758 -2.115837,-1.82644 -3.06554,-3.6735 -2.62499,-5.1069 0.148559,-0.4854 0.254516,-0.62532 0.944088,-1.24454 0.689695,-0.6193 0.865964,-0.73259 1.564082,-1.00852 2.097526,-0.82823 5.486796,-1.06049 9.255337,-0.63181 0.947262,0.10755 1.258418,0.11206 1.304194,0.0122 0.213867,-0.47266 1.410396,-1.80691 2.498649,-2.78472 1.757195,-1.57869 3.11449,-2.3076 4.949444,-2.65835 0.650877,-0.12439 1.232662,-0.17329 1.792963,-0.14305 z m -0.548338,1.57118 c -0.202758,-0.01 -0.414915,0.0299 -0.810666,0.10962 -1.224605,0.24672 -2.007073,0.69474 -3.385486,1.93357 -1.019039,0.91588 -2.114982,2.13752 -2.155387,2.40325 -0.01465,0.0815 0.316283,0.1855 1.213618,0.38147 0.676878,0.14809 1.774774,0.41979 2.441398,0.6032 l 1.211177,0.33139 1.668939,-0.41723 c 0.917844,-0.23055 2.179436,-0.52558 2.803701,-0.65326 1.334712,-0.27289 1.292354,-0.18485 0.715329,-1.48057 -0.742428,-1.66797 -1.660882,-2.60993 -2.949208,-3.02553 -0.358519,-0.11584 -0.550657,-0.17634 -0.753415,-0.18596 z m 12.516922,5.23327 c -1.35229,-0.0642 -3.045399,0.0168 -4.892316,0.25034 l -0.574583,0.0715 0.08789,1.21592 c 0.05005,0.6682 0.07324,1.45663 0.05249,1.75238 l -0.04028,0.53643 0.99902,0.51022 c 0.549314,0.28011 1.429071,0.76539 1.954948,1.08004 0.525511,0.31461 1.008542,0.56412 1.072873,0.55312 0.0647,-0.011 0.559934,-0.30856 1.099117,-0.66041 1.302241,-0.85022 3.008289,-2.43514 3.361682,-3.12328 l 0,0 c 0.310179,-0.60427 0.199462,-1.23292 -0.274169,-1.56878 -0.486082,-0.34437 -1.496943,-0.55326 -2.849111,-0.6175 z m -26.335597,0.15258 c -0.445677,-0.007 -0.857541,-0.004 -1.184932,0.0122 -3.266712,0.15479 -4.657088,0.97467 -4.274887,2.52247 0.196166,0.79503 0.752439,1.60459 1.742791,2.532 1.211056,1.13399 0.937985,1.11054 2.744253,0.24556 0.857053,-0.41029 1.937005,-0.90668 2.40087,-1.10387 0.463744,-0.19716 0.868283,-0.37622 0.898801,-0.39816 0.02563,-0.0232 0.218016,-0.42489 0.414915,-0.89406 0.197021,-0.4692 0.560911,-1.23704 0.808225,-1.70708 l 0.44824,-0.85591 -0.386351,-0.0811 c -0.628538,-0.13393 -2.275138,-0.24922 -3.611925,-0.27179 z m 18.095881,0.64373 c -1.44726,0.29836 -2.731557,0.59016 -2.775258,0.62943 -0.03052,0.0268 0.652097,0.31886 1.516352,0.64849 1.227168,0.46807 1.576654,0.57189 1.595087,0.47683 0.01465,-0.0671 -2.44e-4,-0.49908 -0.04273,-0.96082 -0.05127,-0.65984 -0.114745,-0.83091 -0.293212,-0.79393 z m -11.713458,0.0906 c -0.09766,0.0878 -0.862912,1.6392 -0.848752,1.72138 0.01465,0.0496 0.648802,-0.13046 1.420893,-0.40055 0.77197,-0.26997 1.552119,-0.52848 1.73327,-0.57458 0.181152,-0.0459 0.353515,-0.10388 0.38391,-0.12875 0.02808,-0.0256 -0.348509,-0.13336 -0.841672,-0.24081 -0.493162,-0.10791 -1.101558,-0.24508 -1.351801,-0.30517 -0.250366,-0.0599 -0.473143,-0.0918 -0.495848,-0.0715 z m 43.613733,1.2803 c -0.02197,0.45104 -0.0354,0.92146 -0.0354,1.40904 0,1.92938 0.200805,3.57215 0.393431,4.7326 L 49.668609,1033.2521 9.7908239,1018.041 c -0.149536,-0.643 -0.510252,-1.9062 -0.510252,-4.5609 0,-1.246 0.09888,-2.2907 0.212279,-3.1853 l 39.8729021,15.2063 a 2.1364363,2.1364363 0 0 0 2.188713,-0.4053 l 37.801132,-33.94354 z m -37.953719,0.11438 -0.412475,0.10486 c -0.709958,0.18174 -4.742048,1.55446 -5.9199,2.01463 l -1.127681,0.44106 -0.340941,1.29223 c -0.481444,1.83141 -0.71594,3.44373 -0.534056,3.66448 0.163329,0.1982 5.469096,2.28168 6.060525,2.37938 0.358397,0.059 3.025623,-0.7683 5.676737,-1.7595 1.017941,-0.3807 1.866448,-0.70591 1.885857,-0.72239 0.01831,-0.0167 0.189819,-0.61045 0.376708,-1.32084 l 0,0 c 0.187011,-0.71037 0.417235,-1.79931 0.51013,-2.42233 0.146118,-0.97874 0.128539,-1.16008 -0.123901,-1.33514 -0.160766,-0.11169 -1.587885,-0.68438 -3.171009,-1.27077 l -2.877675,-1.06572 z m -0.836911,3.03506 c 1.729363,-0.046 3.052235,0.78727 2.894398,1.8239 -0.05737,0.37596 -0.179687,0.58593 -0.574583,0.97989 -0.43701,0.43601 -0.598997,0.53762 -1.261226,0.78439 -0.554929,0.20766 -0.965694,0.29018 -1.525873,0.30518 -1.729242,0.0461 -3.052113,-0.78725 -2.894399,-1.8239 0.164429,-1.07891 1.700312,-2.02509 3.361683,-2.06946 z m 9.658412,0.72002 c -0.107422,0.0189 -0.652098,2.33555 -0.557982,2.37703 0.09155,0.0437 2.511344,-1.17768 2.496207,-1.25885 -0.01465,-0.0421 -0.423582,-0.31485 -0.925045,-0.60559 -0.501219,-0.29085 -0.957272,-0.52208 -1.01318,-0.51259 z m -19.326224,0.15974 c -0.02808,-0.0201 -0.06836,-0.0153 -0.123901,0.005 -0.556761,0.2068 -2.342521,1.12525 -2.303214,1.18493 0.05737,0.0875 1.53515,0.96529 1.78576,1.06096 0.112304,0.0428 0.222899,0.0613 0.243285,0.043 0.01831,-0.0183 0.147705,-0.56205 0.283691,-1.20879 l 0,0 c 0.155761,-0.74261 0.19348,-1.02423 0.109862,-1.08479 z m 22.795205,2.19821 c -0.09277,0.0217 -0.193236,0.0736 -0.326659,0.14305 -0.244384,0.12743 -1.345576,0.64611 -2.448599,1.15156 l -2.007439,0.91791 -0.357665,0.85349 c -0.196655,0.4687 -0.556516,1.2323 -0.801022,1.6976 -0.272949,0.5191 -0.388305,0.8667 -0.298095,0.9012 0.26953,0.1028 2.44921,0.3033 3.612047,0.3314 2.144524,0.052 3.843614,-0.2008 4.811262,-0.7129 0.465453,-0.2462 0.662351,-0.4437 0.870236,-0.8821 l 0,0 c 0.345336,-0.7307 -0.36328,-2.18928 -1.664178,-3.41893 -0.88696,-0.83826 -1.107906,-1.04754 -1.387568,-0.98228 z m -27.463401,0.19789 c -0.35681,0.11547 -2.226188,1.45346 -2.994496,2.14337 -1.416987,1.27225 -1.905877,2.30085 -1.39477,2.93965 0.686155,0.8579 3.535021,1.1192 7.42197,0.6795 l 1.144405,-0.1287 -0.0647,-0.7677 c -0.0354,-0.422 -0.05981,-1.2191 -0.05737,-1.7715 l 0,0 0,-1.00608 -0.979977,-0.4983 c -0.540037,-0.27471 -1.412837,-0.75925 -1.940667,-1.07525 -0.735715,-0.44045 -1.002193,-0.55957 -1.139644,-0.51499 z m 19.53362,3.32592 c -0.01465,-0.051 -0.450559,0.063 -0.982296,0.2527 -0.531614,0.1898 -1.331172,0.4589 -1.773919,0.5985 -0.442747,0.1396 -0.796628,0.2673 -0.78906,0.2837 0.02441,0.05 2.660757,0.6204 2.701284,0.5841 0.01953,-0.018 0.222046,-0.3911 0.448119,-0.8297 0.226195,-0.4385 0.404539,-0.8387 0.395872,-0.8893 z m -12.807814,0.026 c -0.05493,-0 -0.08179,0.01 -0.08545,0.031 -0.07202,0.3744 0.131591,1.7977 0.255004,1.7762 0.616453,-0.1074 2.798207,-0.6005 2.84911,-0.6437 0.0354,-0.031 -0.644895,-0.3236 -1.509149,-0.6533 -0.920163,-0.351 -1.345699,-0.4989 -1.50915,-0.5102 z m 6.019997,2.0528 -1.068111,0.2837 c -0.587034,0.1556 -1.852776,0.4538 -2.813344,0.6628 l -1.747552,0.3791 0.16455,0.5698 c 0.218993,0.759 0.770871,1.7646 1.332636,2.4271 1.442256,1.7004 3.317249,1.8596 5.564677,0.4721 0.603148,-0.3725 2.540397,-2.2273 3.058949,-2.9302 0.224243,-0.3036 0.402343,-0.5783 0.395751,-0.608 0,-0.029 -0.566648,-0.1739 -1.242183,-0.3218 -0.675535,-0.1478 -1.771722,-0.4179 -2.436637,-0.6008 l -1.208736,-0.3338 z"></path></g></svg>